<svg id="Layer_1" xmlns="http://www.w3.org/2000/svg" width="292.56" height="53.54" viewBox="0 0 292.56 53.54"><style>.st0{fill:#fff}</style><path class="st0" d="M28.42 37.67l3.49 9.91L36.06 37l3.93 10.59 3.87-9.91h1.63L39.94 51.6 36.04 41l-4.17 10.59-5.07-13.92h1.62zM64.85 37.67v13.22h-1.47V37.67h1.47zM94.58 40.29c-.18-.36-.48-.75-.77-.99-.26-.2-.73-.46-1.49-.46-1.31 0-2.22.81-2.22 2.04 0 .52.14.81.5 1.15.4.4.89.61 1.39.83l1.27.56c.77.34 1.49.69 2.04 1.25.67.67.95 1.45.95 2.4 0 2.44-1.81 4.06-4.19 4.06-.87 0-1.96-.18-2.88-1.07-.65-.63-1.05-1.55-1.23-2.34l1.43-.4c.1.69.42 1.29.79 1.69.58.57 1.23.73 1.9.73 1.81 0 2.66-1.29 2.66-2.62 0-.59-.18-1.11-.65-1.55-.38-.36-.89-.59-1.59-.91l-1.19-.56c-.52-.24-1.17-.52-1.77-1.09-.58-.56-.91-1.17-.91-2.16 0-2.04 1.57-3.41 3.71-3.41.81 0 1.47.16 2.12.59.54.36.99.89 1.29 1.47l-1.16.79zM125.49 40.58c-.42-.42-1.05-.91-1.73-1.23a5.59 5.59 0 0 0-2.28-.52c-3.05 0-5.32 2.46-5.32 5.51 0 3.59 2.92 5.39 5.34 5.39.89 0 1.77-.26 2.46-.61.75-.38 1.29-.87 1.53-1.11v1.82c-1.47 1.05-3 1.29-3.99 1.29-3.93 0-6.84-2.97-6.84-6.8 0-3.95 2.96-6.88 6.92-6.88.79 0 2.32.1 3.91 1.31v1.83zM141.17 44.29c0-3.95 3.07-6.84 6.88-6.84s6.88 2.89 6.88 6.84c0 3.93-3.06 6.84-6.88 6.84s-6.88-2.91-6.88-6.84zm1.51 0c0 3.03 2.4 5.45 5.38 5.45s5.38-2.42 5.38-5.45c0-3.03-2.4-5.45-5.38-5.45s-5.38 2.42-5.38 5.45zM170.14 50.89V37.11l10.32 10.8V37.67h1.47v13.82l-10.32-10.81v10.21h-1.47zM206.49 40.29c-.18-.36-.48-.75-.77-.99-.26-.2-.73-.46-1.49-.46-1.31 0-2.22.81-2.22 2.04 0 .52.14.81.5 1.15.4.4.89.61 1.39.83l1.27.56c.77.34 1.49.69 2.04 1.25.67.67.95 1.45.95 2.4 0 2.44-1.81 4.06-4.19 4.06-.87 0-1.96-.18-2.88-1.07-.65-.63-1.05-1.55-1.23-2.34l1.43-.4c.1.69.42 1.29.79 1.69.58.57 1.23.73 1.9.73 1.81 0 2.66-1.29 2.66-2.62 0-.59-.18-1.11-.65-1.55-.38-.36-.89-.59-1.59-.91l-1.19-.56c-.52-.24-1.17-.52-1.77-1.09-.57-.56-.91-1.17-.91-2.16 0-2.04 1.57-3.41 3.71-3.41.81 0 1.47.16 2.12.59.54.36.99.89 1.29 1.47l-1.16.79zM232.73 37.67v13.22h-1.47V37.67h1.47zM254.08 50.89V37.11l10.32 10.8V37.67h1.47v13.82l-10.32-10.81v10.21h-1.47z"/><g><path class="st0" d="M197.05 3.71h5.34c2.63 0 6.37.27 9.67 3.06 2.4 2 4.48 5.34 4.48 10.05 0 5.5-2.71 8.44-4.6 10.05-2.4 2.04-4.91 3.02-9.59 3.02h-5.3V3.71zm2.91 23.44h2.55c2.08 0 4.95-.24 7.5-2.36 1.96-1.65 3.54-4.24 3.54-7.97 0-6.28-4.4-10.37-11.04-10.37h-2.55v20.7zM235.64 22.51h-11.16l-3.14 7.38h-3.22l12.06-27.45 11.75 27.45h-3.22l-3.07-7.38zm-1.14-2.75l-4.4-10.48-4.48 10.48h8.88zM246.28 29.9V2.61l20.43 21.4V3.71h2.91v27.37l-20.43-21.4V29.9h-2.91zM290.33 6.45h-10.69v7.77h10.37v2.75h-10.37v10.17h10.69v2.75h-13.6V3.71h13.6v2.74z"/><g><path class="st0" d="M23.78 9.48c-.82-.82-2.08-1.81-3.42-2.43-1.38-.63-2.99-1.02-4.52-1.02-6.05 0-10.53 4.87-10.53 10.92 0 7.11 5.78 10.68 10.57 10.68 1.77 0 3.5-.51 4.87-1.22 1.49-.75 2.55-1.73 3.03-2.2v3.61a13.655 13.655 0 0 1-7.9 2.55c-7.78 0-13.56-5.89-13.56-13.47 0-7.81 5.86-13.63 13.71-13.63 1.57 0 4.6.2 7.74 2.59v3.62zM27.95 16.82c0-7.81 6.09-13.55 13.63-13.55S55.21 9 55.21 16.82c0 7.78-6.05 13.55-13.63 13.55-7.58 0-13.63-5.78-13.63-13.55zm2.99 0c0 6.01 4.75 10.8 10.65 10.8 5.89 0 10.65-4.79 10.65-10.8 0-6.01-4.75-10.8-10.65-10.8s-10.65 4.79-10.65 10.8zM63.72 19.76c0 2.2 0 4.59 2.08 6.36 1.06.9 2.87 1.49 4.32 1.49 1.45 0 3.26-.59 4.32-1.49 2.08-1.77 2.08-4.16 2.08-6.36V3.71h2.91v16.85c0 2.2-.24 4.32-1.65 6.28-1.57 2.16-4.32 3.53-7.66 3.53s-6.09-1.37-7.66-3.53c-1.41-1.96-1.65-4.08-1.65-6.28V3.71h2.91v16.05zM86.98 29.9V2.61l20.43 21.4V3.71h2.91v27.37L89.89 9.67V29.9h-2.91zM126.28 6.45V29.9h-2.91V6.45H117V3.71h15.64v2.75h-6.36zM147.16 18.63l-8.6-14.92h3.38l6.68 11.7 6.76-11.7h3.38l-8.68 14.92V29.9h-2.91V18.63z"/></g><g><path class="st0" d="M166.03 15.76c0-1.5.55-2.78 1.65-3.86 1.09-1.07 2.41-1.61 3.94-1.61 1.52 0 2.82.54 3.9 1.63 1.09 1.08 1.63 2.39 1.63 3.91 0 1.53-.55 2.83-1.64 3.89-1.1 1.07-2.42 1.61-3.98 1.61-1.37 0-2.61-.48-3.7-1.43-1.2-1.05-1.8-2.43-1.8-4.14zm1.62.02c0 1.18.4 2.14 1.19 2.9.79.76 1.69 1.14 2.72 1.14 1.12 0 2.06-.39 2.83-1.16.77-.78 1.15-1.73 1.15-2.85 0-1.13-.38-2.09-1.14-2.85-.75-.77-1.69-1.16-2.8-1.16-1.11 0-2.04.39-2.81 1.16-.76.76-1.14 1.7-1.14 2.82zM184.49 12h-3.71v2.56h3.58v1.51h-3.58v5.06h-1.61V10.49h5.32V12z"/></g></g></svg>